<?xml version="1.0" standalone="no"?>
<!DOCTYPE svg PUBLIC "-//W3C//DTD SVG 20010904//EN"
 "http://www.w3.org/TR/2001/REC-SVG-20010904/DTD/svg10.dtd">
<svg version="1.0" xmlns="http://www.w3.org/2000/svg"
 width="865.000000pt" height="752.000000pt" viewBox="0 0 865.000000 752.000000"
 preserveAspectRatio="xMidYMid meet">

<g transform="translate(0.000000,752.000000) scale(0.100000,-0.100000)"
fill="#000000" stroke="none">
<path d="M1575 7498 c-6 -21 -1565 -7465 -1565 -7477 0 -15 2204 -15 2375 -1
941 79 1865 481 2655 1156 158 135 433 412 566 569 345 410 611 846 794 1302
l60 148 911 5 912 5 177 845 c98 465 180 860 184 878 l8 32 -2766 0 c-2624 0
-2765 -1 -2770 -17 -3 -10 -84 -396 -181 -858 -97 -462 -178 -850 -182 -862
l-5 -23 957 0 957 0 -42 -77 c-337 -621 -986 -1126 -1660 -1292 -191 -47 -248
-53 -542 -58 -281 -5 -287 -5 -282 14 3 11 191 906 418 1989 l413 1969 274 0
c219 -1 292 -4 364 -18 269 -53 490 -147 686 -292 l74 -55 1112 0 1111 0 -20
73 c-85 300 -257 639 -465 917 -114 151 -383 420 -533 532 -370 276 -783 456
-1250 547 -288 56 -241 54 -1538 58 -976 3 -1203 1 -1207 -9z"/>
</g>
</svg>
